<svg version="1.1" xmlns="http://www.w3.org/2000/svg" xmlns:xlink="http://www.w3.org/1999/xlink" x="0px" y="0px"
	 viewBox="0 0 7 17" style="enable-background:new 0 0 7 17;" xml:space="preserve">
<style type="text/css">
	.st0{fill:#4b4b4b;}
</style>
<g id="Layer_1">
	<g>
		<rect x="0.5" y="0.5" class="st0" width="1" height="1"/>
		<polygon  class="st0" points="2,0 0,0 0,2 2,2 2,0 		"/>
	</g>
</g>
<g id="Layer_1_copy">
	<g>
		<rect x="5.5" y="0.5" class="st0" width="1" height="1"/>
		<polygon class="st0" points="7,0 5,0 5,2 7,2 7,0 		"/>
	</g>
</g>
<g id="Layer_1_copy_3">
	<g>
		<rect x="0.5" y="5.5" class="st0" width="1" height="1"/>
		<polygon class="st0" points="2,5 0,5 0,7 2,7 2,5 		"/>
	</g>
</g>
<g id="Layer_1_copy_2">
	<g>
		<rect x="5.5" y="5.5" class="st0" width="1" height="1"/>
		<polygon class="st0" points="7,5 5,5 5,7 7,7 7,5 		"/>
	</g>
</g>
<g id="Layer_1_copy_5">
	<g>
		<rect x="0.5" y="10.5" class="st0" width="1" height="1"/>
		<polygon class="st0" points="2,10 0,10 0,12 2,12 2,10 		"/>
	</g>
</g>
<g id="Layer_1_copy_4">
	<g>
		<rect x="5.5" y="10.5" class="st0" width="1" height="1"/>
		<polygon class="st0" points="7,10 5,10 5,12 7,12 7,10 		"/>
	</g>
</g>
<g id="Layer_1_copy_7">
	<g>
		<rect x="0.5" y="15.5" class="st0" width="1" height="1"/>
		<polygon class="st0" points="2,15 0,15 0,17 2,17 2,15 		"/>
	</g>
</g>
<g id="Layer_1_copy_6">
	<g>
		<rect x="5.5" y="15.5" class="st0" width="1" height="1"/>
		<polygon class="st0" points="7,15 5,15 5,17 7,17 7,15 		"/>
	</g>
</g>
</svg>
